<svg xmlns="http://www.w3.org/2000/svg" viewBox="0 0 800 800"><g fill="none" stroke="#F5C84B" stroke-opacity="0.75" stroke-width="1.4">
<circle cx="348.0" cy="130.0" r="60"/>
<circle cx="452.0" cy="130.0" r="60"/>
<circle cx="192.2" cy="220.0" r="60"/>
<circle cx="296.1" cy="220.0" r="60"/>
<circle cx="400.0" cy="220.0" r="60"/>
<circle cx="503.9" cy="220.0" r="60"/>
<circle cx="607.8" cy="220.0" r="60"/>
<circle cx="140.2" cy="310.0" r="60"/>
<circle cx="244.1" cy="310.0" r="60"/>
<circle cx="348.0" cy="310.0" r="60"/>
<circle cx="452.0" cy="310.0" r="60"/>
<circle cx="555.9" cy="310.0" r="60"/>
<circle cx="659.8" cy="310.0" r="60"/>
<circle cx="192.2" cy="400.0" r="60"/>
<circle cx="296.1" cy="400.0" r="60"/>
<circle cx="400.0" cy="400.0" r="60"/>
<circle cx="503.9" cy="400.0" r="60"/>
<circle cx="607.8" cy="400.0" r="60"/>
<circle cx="140.2" cy="490.0" r="60"/>
<circle cx="244.1" cy="490.0" r="60"/>
<circle cx="348.0" cy="490.0" r="60"/>
<circle cx="452.0" cy="490.0" r="60"/>
<circle cx="555.9" cy="490.0" r="60"/>
<circle cx="659.8" cy="490.0" r="60"/>
<circle cx="192.2" cy="580.0" r="60"/>
<circle cx="296.1" cy="580.0" r="60"/>
<circle cx="400.0" cy="580.0" r="60"/>
<circle cx="503.9" cy="580.0" r="60"/>
<circle cx="607.8" cy="580.0" r="60"/>
<circle cx="348.0" cy="670.0" r="60"/>
<circle cx="452.0" cy="670.0" r="60"/>
</g></svg>