<svg xmlns="http://www.w3.org/2000/svg" viewBox="0 0 800 800">
<rect width="100%" height="100%" fill="none"/>
<g stroke="#F5C84B" stroke-width="1.6" fill="none" stroke-opacity="0.85">
  <circle cx="400" cy="400" r="280"/>
  <circle cx="400" cy="120" r="40"/><circle cx="640" cy="260" r="40"/><circle cx="640" cy="540" r="40"/>
  <circle cx="400" cy="680" r="40"/><circle cx="160" cy="540" r="40"/><circle cx="160" cy="260" r="40"/>
  <circle cx="400" cy="400" r="40"/>
  <line x1="400" y1="120" x2="640" y2="260"/><line x1="640" y1="260" x2="640" y2="540"/>
  <line x1="640" y1="540" x2="400" y2="680"/><line x1="400" y1="680" x2="160" y2="540"/>
  <line x1="160" y1="540" x2="160" y2="260"/><line x1="160" y1="260" x2="400" y2="120"/>
  <line x1="400" y1="120" x2="400" y2="680"/>
  <line x1="160" y1="260" x2="640" y2="540"/><line x1="640" y1="260" x2="160" y2="540"/>
  <line x1="400" y1="120" x2="640" y2="540"/><line x1="400" y1="120" x2="160" y2="540"/>
  <line x1="400" y1="680" x2="640" y2="260"/><line x1="400" y1="680" x2="160" y2="260"/>
</g></svg>